# Blender v2.76 (sub 0) OBJ File: 'wardBench.blend'
# www.blender.org
mtllib wardBench.mtl
o Cube.002_Cube.005
v 0.500000 0.000000 1.000000
v 0.500000 1.500000 1.000000
v 0.500000 0.000000 0.500000
v 0.500000 1.500000 0.500000
v 1.000000 0.000000 1.000000
v 1.000000 1.500000 1.000000
v 1.000000 0.000000 0.500000
v 1.000000 1.500000 0.500000
vt 0.625000 0.937500
vt 0.687500 0.937500
vt 0.687500 0.562500
vt 0.625000 0.562500
vt 0.546875 0.812500
vt 0.546875 0.937500
vt 0.609375 0.937500
vt 0.609375 0.812500
vt 0.562500 0.375000
vt 0.562500 1.375000
vt 0.062500 1.375000
vt 0.062500 0.375000
vn -1.000000 0.000000 0.000000
vn 0.000000 0.000000 -1.000000
vn 1.000000 0.000000 0.000000
vn 0.000000 0.000000 1.000000
vn 0.000000 -1.000000 0.000000
vn 0.000000 1.000000 0.000000
usemtl Material
s off
f 2/1/1 4/2/1 3/3/1 1/4/1
f 4/1/2 8/2/2 7/3/2 3/4/2
f 8/2/3 6/1/3 5/4/3 7/3/3
f 6/2/4 2/1/4 1/4/4 5/3/4
f 1/5/5 3/6/5 7/7/5 5/8/5
f 6/9/6 8/10/6 4/11/6 2/12/6
o Cube.001_Cube.003
v 0.500000 0.000000 -0.500000
v 0.500000 1.500000 -0.500000
v 0.500000 0.000000 -1.000000
v 0.500000 1.500000 -1.000000
v 1.000000 0.000000 -0.500000
v 1.000000 1.500000 -0.500000
v 1.000000 0.000000 -1.000000
v 1.000000 1.500000 -1.000000
vt 0.625000 0.937500
vt 0.687500 0.937500
vt 0.687500 0.562500
vt 0.625000 0.562500
vt 0.546875 0.812500
vt 0.546875 0.937500
vt 0.609375 0.937500
vt 0.609375 0.812500
vt 0.562500 0.375000
vt 0.562500 1.375000
vt 0.062500 1.375000
vt 0.062500 0.375000
vn -1.000000 0.000000 0.000000
vn 0.000000 0.000000 -1.000000
vn 1.000000 0.000000 0.000000
vn 0.000000 0.000000 1.000000
vn 0.000000 -1.000000 0.000000
vn 0.000000 1.000000 0.000000
usemtl Material
s off
f 10/13/7 12/14/7 11/15/7 9/16/7
f 12/13/8 16/14/8 15/15/8 11/16/8
f 16/14/9 14/13/9 13/16/9 15/15/9
f 14/14/10 10/13/10 9/16/10 13/15/10
f 9/17/11 11/18/11 15/19/11 13/20/11
f 14/21/12 16/22/12 12/23/12 10/24/12
o Cube
v 1.000000 1.500000 -1.000000
v 1.000000 1.500000 1.000000
v -1.000000 1.500000 1.000000
v -1.000000 1.500000 -1.000000
v 1.000000 2.000000 -0.999999
v 0.999999 2.000000 1.000001
v -1.000000 2.000000 1.000000
v -1.000000 2.000000 -1.000000
vt 0.531250 0.968750
vt 0.531250 0.468750
vt 0.281250 0.468750
vt 0.281250 0.968750
vt 0.265625 0.968750
vt 0.015625 0.968750
vt 0.015625 0.468750
vt 0.265625 0.468750
vt 0.265625 0.156250
vt 0.265625 0.281250
vt 0.015625 0.281250
vt 0.015625 0.156250
vt 0.515636 0.312857
vt 0.515636 0.437857
vt 0.265636 0.437857
vt 0.265636 0.312857
vt 0.015722 0.312888
vt 0.015722 0.437888
vt 0.265722 0.437888
vt 0.265722 0.312888
vt 0.515900 0.281444
vt 0.515900 0.156444
vt 0.265900 0.156444
vt 0.265900 0.281444
vn 0.000000 -1.000000 -0.000000
vn 0.000000 1.000000 0.000000
vn 1.000000 0.000000 0.000000
vn -0.000000 -0.000000 1.000000
vn -1.000000 -0.000000 -0.000000
vn 0.000000 0.000000 -1.000000
usemtl Material
s off
f 17/25/13 18/26/13 19/27/13 20/28/13
f 21/29/14 24/30/14 23/31/14 22/32/14
f 17/33/15 21/34/15 22/35/15 18/36/15
f 18/37/16 22/38/16 23/39/16 19/40/16
f 19/41/17 23/42/17 24/43/17 20/44/17
f 21/45/18 17/46/18 20/47/18 24/48/18
o Cube.003
v -1.000000 0.000000 -0.500000
v -1.000000 1.500000 -0.500000
v -1.000000 0.000000 -1.000000
v -1.000000 1.500000 -1.000000
v -0.500000 0.000000 -0.500000
v -0.500000 1.500000 -0.500000
v -0.500000 0.000000 -1.000000
v -0.500000 1.500000 -1.000000
vt 0.625000 0.937500
vt 0.687500 0.937500
vt 0.687500 0.562500
vt 0.625000 0.562500
vt 0.546875 0.812500
vt 0.546875 0.937500
vt 0.609375 0.937500
vt 0.609375 0.812500
vt 0.562500 0.375000
vt 0.562500 1.375000
vt 0.062500 1.375000
vt 0.062500 0.375000
vn -1.000000 0.000000 0.000000
vn 0.000000 0.000000 -1.000000
vn 1.000000 0.000000 0.000000
vn 0.000000 0.000000 1.000000
vn 0.000000 -1.000000 0.000000
vn 0.000000 1.000000 0.000000
usemtl Material
s off
f 26/49/19 28/50/19 27/51/19 25/52/19
f 28/49/20 32/50/20 31/51/20 27/52/20
f 32/50/21 30/49/21 29/52/21 31/51/21
f 30/50/22 26/49/22 25/52/22 29/51/22
f 25/53/23 27/54/23 31/55/23 29/56/23
f 30/57/24 32/58/24 28/59/24 26/60/24
o Cube.004_Cube.006
v -1.000000 0.000000 1.000000
v -1.000000 1.500000 1.000000
v -1.000000 0.000000 0.500000
v -1.000000 1.500000 0.500000
v -0.500000 0.000000 1.000000
v -0.500000 1.500000 1.000000
v -0.500000 0.000000 0.500000
v -0.500000 1.500000 0.500000
vt 0.625000 0.937500
vt 0.687500 0.937500
vt 0.687500 0.562500
vt 0.625000 0.562500
vt 0.546875 0.812500
vt 0.546875 0.937500
vt 0.609375 0.937500
vt 0.609375 0.812500
vt 0.562500 0.375000
vt 0.562500 1.375000
vt 0.062500 1.375000
vt 0.062500 0.375000
vn -1.000000 0.000000 0.000000
vn 0.000000 0.000000 -1.000000
vn 1.000000 0.000000 0.000000
vn 0.000000 0.000000 1.000000
vn 0.000000 -1.000000 0.000000
vn 0.000000 1.000000 0.000000
usemtl Material_wardBench.png.001
s off
f 34/61/25 36/62/25 35/63/25 33/64/25
f 36/61/26 40/62/26 39/63/26 35/64/26
f 40/62/27 38/61/27 37/64/27 39/63/27
f 38/62/28 34/61/28 33/64/28 37/63/28
f 33/65/29 35/66/29 39/67/29 37/68/29
f 38/69/30 40/70/30 36/71/30 34/72/30
